<svg width="362" height="124" viewBox="0 0 362 124" fill="none" xmlns="http://www.w3.org/2000/svg">
<path d="M17 122C17 90.7457 24.0045 57.8798 32 27.6111C34.0853 19.7167 35.5471 -4.70814 36 3.44445C36.4142 10.9007 37.9115 20.0491 40.1111 27.1111C43.5212 38.0594 46.4057 49.7691 50.6111 60.4444C53.471 67.7041 57.0261 74.7081 58.7778 82.4445C59.7943 86.9343 62 89.8201 62 94.5556C62 97.3813 61.5259 100.72 62.1111 103.5C62.4392 105.058 66.2468 108.692 64.8889 110.389C64.0078 111.49 58.1721 107.47 57.2222 107.222C46.3074 104.375 35.2338 98.4896 24.5555 94.5556C18.4964 92.3232 12.1707 91.1486 6.94444 87.5556C4.11813 85.6125 -1.16017 85 4.77777 85C14.5802 85 24.0435 84.0942 33.5555 81.5C43.3521 78.8282 54.9223 76.3896 63.7778 71.6667C65.3455 70.8305 66.9182 71.2203 68.5555 70.7778C70.7451 70.186 72.9354 68.1718 74.8889 67.0556C78.6443 64.9096 82.0452 61.0861 85.3333 58.2222C89.5383 54.5598 94 54.6687 94 48.4444C94 45.4229 91.0878 42.088 90.5555 38.6667C89.8941 34.4145 88.147 29.9795 86 26.2222C84.9318 24.3529 83 16.6255 83 20.5C83 28.2895 85.6564 35.0886 85.9444 42.7222C86.2304 50.2994 86 57.9168 86 65.5C86 70.2258 87.8761 74.6138 88.7778 79.2222C90.0663 85.8078 94.1333 90.8825 96.5555 97.1111C99.9658 105.88 117.337 111.65 121.444 100.5C123.701 94.3751 122.917 82.3575 119.444 77C117.001 73.2304 115.063 72.5295 111.444 70.5556C110.348 69.9577 106.855 67.488 106.056 66.5556C105.296 65.6689 102.451 65.5758 102.167 67C101.682 69.4254 108.036 66.106 108.778 66C114.01 65.2525 121.203 55.8321 122.778 51.4444C126.04 42.3564 126 34.8178 126 25.1111C126 24.0346 126 18.2017 126 22.5C126 26.5849 125.481 31.0607 126.667 35C128.148 39.919 130.852 44.3833 132.333 49.3333C133.612 53.6045 133.925 58.0776 135.222 62.3333C136.794 67.4872 137.935 72.7133 139.444 77.8889C140.86 82.7406 141.814 87.37 144 92C144.931 93.9706 146 96.1286 146 98.3333C146 104.297 144 86.5189 144 80.5556C144 71.7239 142.962 62.2714 145 53.6111C146.384 47.7291 148.276 48.678 150.778 53C152.343 55.7035 153.808 57.0015 155.111 60.1667C157.722 66.508 160.78 72.7136 162.222 79.4445C162.83 82.2816 165.66 94.0911 169.5 94.9445C174.745 96.1099 175.484 94.6723 176.222 90C177.553 81.57 180.31 69.1131 177.833 60.4444C176.992 57.4984 172 47.5746 172 56C172 68.1419 177.391 81.1403 181.5 92.5556C181.976 93.8788 186.418 106.857 188.222 100C192.29 84.5419 193.763 69.3075 200.889 55.0556C201.601 53.6317 202.428 50.069 204.222 50C209.033 49.815 211.515 55.262 214.444 58.5C220.276 64.9452 223.109 71.8542 226.222 79.7778C227.611 83.314 230 88.262 230 81.5C230 73.44 231.483 66.4671 232.778 58.5556C233.11 56.524 233.712 39.7698 239.556 44.4444C247.615 50.8921 253.686 58.4781 258.056 67.9445C259.472 71.0138 259.867 74.459 261.444 77.3889C262.632 79.5937 263.739 73.6547 264.333 71.7778C266.683 64.353 266.97 56.9479 270 49.5556C271.978 44.7295 273.056 37.2445 276.5 33.1111C279.339 29.7042 284.495 32.6108 285.889 36.4444C288.484 43.5817 288.251 36.5305 284.444 38.2222C280.912 39.7921 278.512 50.1539 278 53.6111C277.322 58.1896 274.952 62.0876 274.111 66.5C273.509 69.6594 274 73.3272 274 76.5556C274 79.5629 276.875 84.795 280.056 84C286.828 82.307 287.884 77.3485 290 71C292.481 63.5569 294 55.3667 294 47.5556C294 45.2698 294.292 42.7597 293.944 40.5C293.595 38.2287 291.282 37.9207 291 35.6667C290.835 34.3436 291 38.3333 291 39.6667C291 48.4093 293.963 53.9153 297.556 61.7778C298.508 63.8628 303.836 84.2533 309 82.7778C316.85 80.535 313 48.5563 313 40.7778C313 33.8609 312.917 30.8096 316.889 39.8889C321.397 50.1923 328.956 58.6588 333.389 68.8889C334.427 71.2851 336.211 76.9406 339.056 77.8889C344.663 79.7579 342.832 59.8883 342.778 58.3333C342.599 53.162 343.261 35.312 335.056 33.9444C332.218 33.4715 337.878 33 338.5 33C342.73 33 345.39 32.2314 349.222 30.7778C352.7 29.4586 359.095 26.6195 360 23" stroke="black" stroke-width="3" stroke-linecap="round"/>
<path d="M166 39C165.539 43.1495 164.35 43.8368 164.944 48C165.288 50.4071 166.294 52.5896 169.556 50.7778C176.132 47.1241 171.704 42 166 42" stroke="black" stroke-width="3" stroke-linecap="round"/>
</svg>
